<?xml version="1.0" encoding="UTF-8"?>
<svg xmlns="http://www.w3.org/2000/svg" xmlns:xlink="http://www.w3.org/1999/xlink" version="1.1" width="512" height="512" x="0" y="0" viewBox="0 0 512 512" style="enable-background:new 0 0 512 512" xml:space="preserve" fill-rule="evenodd" class="">
  <g>
    <path d="M371 436H25c-14 0-25-11-25-25V60c0-14 11-25 25-25h346c14 0 25 11 25 25v187c0 3-2 5-5 5s-5-2-5-5V60c0-8-7-15-15-15H25c-8 0-15 7-15 15v351c0 8 7 15 15 15h346c8 0 15-7 15-15v-96c0-3 2-5 5-5s5 2 5 5v96c0 14-11 25-25 25z" fill="#ffffff" opacity="1" data-original="#000000"/>
    <path d="M66 103H45c-6 0-10-4-10-9V72c0-5 4-9 10-9h21c5 0 9 4 9 9v22c0 5-4 9-9 9zM45 93h20V73H45zM119 103H98c-6 0-10-4-10-9V72c0-5 4-9 10-9h21c5 0 9 4 9 9v22c0 5-4 9-9 9zM98 93h20V73H98zM172 103h-21c-6 0-10-4-10-9V72c0-5 4-9 10-9h21c5 0 9 4 9 9v22c0 5-4 9-9 9zm-21-10h20V73h-20zM332 103h-68c-11 0-20-9-20-20s9-20 20-20h68c11 0 20 9 20 20s-9 20-20 20zm-68-30c-7 0-10 5-10 10s3 10 10 10h68c5 0 10-5 10-10s-5-10-10-10zM391 131H5c-3 0-5-2-5-5s2-5 5-5h386c3 0 5 2 5 5s-2 5-5 5z" fill="#ffffff" opacity="1" data-original="#000000"/>
    <path d="M237 131c-2 0-4-1-4-2l-50-86c-2-3-1-6 1-7 3-2 6-1 7 2l50 86c2 2 1 5-2 6 0 1-1 1-2 1zM427 477H80c-14 0-25-11-25-25v-21c0-3 2-5 5-5s5 2 5 5v21c0 8 7 15 15 15h347c8 0 15-7 15-15V260c0-3 2-5 5-5 2 0 5 2 5 5v192c0 14-12 25-25 25zm20-280c-3 0-5-2-5-5v-91c0-8-7-15-15-15h-36c-3 0-5-2-5-5s2-5 5-5h36c13 0 25 11 25 25v91c0 3-3 5-5 5z" fill="#ffffff" opacity="1" data-original="#000000"/>
    <path d="M447 172h-56c-3 0-5-2-5-5s2-5 5-5h56c2 0 5 2 5 5s-3 5-5 5zM338 373c-2 0-3-1-4-2l-34-34c-1 0-1-2-1-3s0-3 1-4l151-149c2-2 5-2 7 0s2 5 0 7L311 334l27 27 147-147c2-1 5-1 7 0 2 2 2 6 0 8L341 371c-1 1-2 2-3 2z" fill="#ffffff" opacity="1" data-original="#000000"/>
    <path d="M289 388c-1 0-3-1-4-2s-1-3-1-5l15-49c1-2 4-4 6-3 3 1 4 4 4 6l-13 40 40-12c3-1 6 1 7 3 0 3-1 6-4 7l-49 15z" fill="#ffffff" opacity="1" data-original="#000000"/>
    <path d="M316 380c-1 0-2 0-3-1l-21-12c-2-1-3-4-2-7 2-2 5-3 7-1l21 12c3 1 3 4 2 6s-3 3-4 3zM327 362c-2 0-3-1-4-2-2-2-2-5 0-7l133-133c2-2 5-2 7 0s2 6 0 8L330 360c-1 1-2 2-3 2zm-12-12c-2 0-3-1-4-2-2-2-2-5 0-7l134-133c2-1 5-1 7 0 2 2 2 6 0 8L318 348c-1 1-2 2-3 2z" fill="#ffffff" opacity="1" data-original="#000000"/>
    <path d="M471 240c-2 0-3 0-4-1l-34-34c-2-2-2-6 0-8s5-2 7 0l34 34c2 2 2 6 0 8-1 1-2 1-3 1zM489 223c-2 0-3 0-4-1l-34-34c-2-2-2-6 0-8l13-12c4-5 10-8 16-8s12 2 17 7l8 8c9 9 9 25 0 34l-13 13c-1 1-2 1-3 1zm-27-39 27 27 9-10c5-5 5-13 0-18l-8-8c-3-3-6-5-10-5-3 0-6 2-9 4v1zM238 265H65c-3 0-5-2-5-5v-97c0-3 2-5 5-5h173c3 0 5 2 5 5v97c0 3-2 5-5 5zM70 255h163v-87H70z" fill="#ffffff" opacity="1" data-original="#000000"/>
    <path d="M238 265c-1 0-2 0-3-1L63 167c-3-1-4-4-2-6 1-3 4-4 6-2l173 97c3 1 4 4 2 6-1 2-2 3-4 3z" fill="#ffffff" opacity="1" data-original="#000000"/>
    <path d="M65 265c-2 0-3-1-4-3-2-2-1-5 1-6l173-97c3-2 6-1 7 2 2 2 1 5-2 6L67 264c0 1-1 1-2 1zM152 388H65c-3 0-5-2-5-5v-97c0-3 2-5 5-5h87c3 0 5 2 5 5v97c0 3-2 5-5 5zm-82-10h77v-87H70z" fill="#ffffff" opacity="1" data-original="#000000"/>
    <path d="M152 388c-2 0-3-1-4-2l-87-97c-2-2-1-5 1-7s5-2 7 1l87 97c1 2 1 5-1 7-1 1-2 1-3 1z" fill="#ffffff" opacity="1" data-original="#000000"/>
    <path d="M65 388c-1 0-2 0-3-1-2-2-3-5-1-7l87-97c2-3 5-3 7-1s2 5 1 7l-87 97c-1 1-3 2-4 2zM239 296h-61c-3 0-5-2-5-5s2-5 5-5h61c3 0 5 2 5 5s-2 5-5 5zM239 326h-61c-3 0-5-2-5-5s2-5 5-5h61c3 0 5 2 5 5s-2 5-5 5zM239 357h-61c-3 0-5-2-5-5s2-5 5-5h61c3 0 5 2 5 5s-2 5-5 5zM239 388h-61c-3 0-5-2-5-5s2-5 5-5h61c3 0 5 2 5 5s-2 5-5 5z" fill="#ffffff" opacity="1" data-original="#000000"/>
  </g>
</svg>
