<?xml version="1.0" encoding="UTF-8"?>
<svg xmlns="http://www.w3.org/2000/svg" xmlns:xlink="http://www.w3.org/1999/xlink" version="1.1" width="512" height="512" x="0" y="0" viewBox="0 0 682.667 682.667" style="enable-background:new 0 0 512 512" xml:space="preserve">
  <g>
    <defs>
      <clipPath id="a">
        <path d="M0 512h512V0H0Z" fill="#ffffff" opacity="1" data-original="#000000"/>
      </clipPath>
    </defs>
    <g clip-path="url(#a)" transform="matrix(1.33333 0 0 -1.33333 0 682.667)">
      <path d="M0 0a.5.5 0 1 1 0-1 .5.5 0 0 1 0 1Zm13.064 92.135a.5.5 0 1 1 0-1 .5.5 0 0 1 0 1zM-11.36 70.5c-8.285 0-15-6.716-15-15 0-8.285 6.715-15 15-15 8.284 0 15 6.715 15 15 0 8.284-6.716 15-15 15zm-88.355 186.991c-8.284 0-15-6.716-15-15 0-8.284 6.716-15 15-15 8.284 0 15 6.716 15 15 0 8.284-6.716 15-15 15zm96.709 90.957c-8.284 0-15-6.716-15-15 0-8.284 6.716-15 15-15 8.284 0 15 6.716 15 15 0 8.284-6.716 15-15 15zM97.371 201.042h35.526m-17.763 22.5v-45M-79.37 322.948h35.527m-17.763 22.5v-45M71.863 173.88c-4.856 0-8.243-36.825-11.948-40.53-3.705-3.705-29.546-7.172-29.546-12.029 0-4.856 25.841-8.323 29.546-12.029 3.705-3.705 7.092-40.529 11.948-40.529 4.857 0 8.243 36.824 11.949 40.529 3.706 3.706 29.545 7.173 29.545 12.029 0 4.857-25.839 8.324-29.545 12.029-3.706 3.705-7.092 40.53-11.949 40.53zm7.393 174.568c-5.765 0-9.785-43.714-14.184-48.112C60.674 295.938 30 291.822 30 286.057c0-5.765 30.674-9.88 35.072-14.279 4.399-4.398 8.419-48.111 14.184-48.111 5.765 0 9.785 43.713 14.183 48.111 4.399 4.399 35.073 8.514 35.073 14.279 0 5.765-30.674 9.881-35.073 14.279-4.398 4.398-8.418 48.112-14.183 48.112zm-215.971-227.186-224.848-224.849c-5.895-5.894-1.176-20.171 10.54-31.887 11.715-11.715 25.991-16.434 31.886-10.539l77.593 77.593m22 22L41.02 214.144c5.895 5.895 1.176 20.171-10.54 31.887-11.715 11.716-25.992 16.434-31.886 10.539l-113.309-113.308m50.928 50.928c-5.895-5.895-1.176-20.171 10.54-31.887 11.716-11.716 25.992-16.434 31.887-10.539" style="stroke-width:15;stroke-linecap:round;stroke-linejoin:round;stroke-miterlimit:10;stroke-dasharray:none;stroke-opacity:1" transform="translate(371.603 156.052)" fill="none" stroke="#ffffff" stroke-width="15" stroke-linecap="round" stroke-linejoin="round" stroke-miterlimit="10" stroke-dasharray="none" stroke-opacity="" data-original="#000000" opacity="1"/>
    </g>
  </g>
</svg>
