<?xml version="1.0" encoding="UTF-8"?>
<svg xmlns="http://www.w3.org/2000/svg" xmlns:xlink="http://www.w3.org/1999/xlink" version="1.1" width="512" height="512" x="0" y="0" viewBox="0 0 64 64" style="enable-background:new 0 0 512 512" xml:space="preserve" class="">
  <g transform="matrix(0.9900000000000008,0,0,0.9900000000000008,0.32000000715252597,0.3199999999999754)">
    <path d="m61.4 59.9-4.9-39.7c-.2-1.8-1.8-3.2-3.6-3.2h-6.8v-3C46.1 4.8 39 0 32 0S17.9 4.8 17.9 14.1v3h-6.8c-1.8 0-3.4 1.4-3.6 3.2L2.6 59.9c-.1 1 .2 2.1.9 2.8S5.1 64 6.2 64h51.6c1 0 2-.4 2.7-1.2s1-1.8.9-2.9zm-55.2.5 4.9-39.6h6.8V25c0 1 .8 1.8 1.8 1.8s1.8-.8 1.8-1.8V14.1C21.5 6.9 27 3.6 32 3.6c2.8 0 5.3.9 7.2 2.6 2.1 1.9 3.2 4.6 3.2 7.8v3H27.1c-1 0-1.8.8-1.8 1.8s.8 1.8 1.8 1.8h15.4v4.2c0 1 .8 1.8 1.8 1.8s1.8-.8 1.8-1.8v-4.2h6.8l4.9 39.7z" fill="#ffffff" opacity="1" data-original="#000000"/>
  </g>
</svg>
