<?xml version="1.0" encoding="UTF-8"?>
<svg xmlns="http://www.w3.org/2000/svg" xmlns:xlink="http://www.w3.org/1999/xlink" version="1.1" width="512" height="512" x="0" y="0" viewBox="0 0 512 512" style="enable-background:new 0 0 512 512" xml:space="preserve" class="">
  <g transform="matrix(1.0300000000000002,0,0,1.0300000000000002,-7.680000000000064,-7.6800151062012105)">
    <path fill-rule="evenodd" d="m91.777 177.338 67.421-60.798a39.093 39.093 0 0 1-4.371-18.017c0-21.683 17.578-39.261 39.261-39.261s39.261 17.578 39.261 39.261a39.4 39.4 0 0 1-.857 8.183l55.999 28.22c7.193-8.135 17.707-13.266 29.42-13.266a39.07 39.07 0 0 1 21.513 6.417l67.421-60.798a39.093 39.093 0 0 1-4.371-18.017c0-21.683 17.578-39.261 39.261-39.261 21.684 0 39.261 17.578 39.261 39.261s-17.578 39.261-39.261 39.261a39.078 39.078 0 0 1-21.513-6.416l-67.421 60.797a39.081 39.081 0 0 1 4.371 18.018c0 21.683-17.578 39.261-39.261 39.261s-39.261-17.578-39.261-39.261c0-2.807.297-5.544.857-8.183l-55.999-28.22c-7.193 8.135-17.707 13.266-29.42 13.266a39.078 39.078 0 0 1-21.513-6.416l-67.421 60.798a39.08 39.08 0 0 1 4.371 18.017c0 21.683-17.578 39.261-39.261 39.261-21.684 0-39.261-17.578-39.261-39.261s17.578-39.261 39.261-39.261a39.061 39.061 0 0 1 21.513 6.415zm11.272 136.188h-65.57c-5.508 0-10 4.492-10 10V492c0 5.508 4.492 10 10 10h65.57c5.508 0 10-4.492 10-10V323.526c0-5.508-4.492-10-10-10zm371.472-161.018h-65.57c-5.508 0-10 4.492-10 10V492c0 5.508 4.492 10 10 10h65.57c5.508 0 10-4.492 10-10V162.508c0-5.508-4.492-10-10-10zM350.697 267.096h-65.57c-5.508 0-10 4.492-10 10V492c0 5.508 4.492 10 10 10h65.57c5.508 0 10-4.492 10-10V277.095c0-5.507-4.492-9.999-10-9.999zm-123.823-52.123h-65.57c-5.508 0-10 4.492-10 10V492c0 5.508 4.492 10 10 10h65.57c5.508 0 10-4.492 10-10V224.972c-.001-5.508-4.493-9.999-10-9.999z" clip-rule="evenodd" fill="#ffffff" opacity="1" data-original="#000000" class=""/>
  </g>
</svg>
