<?xml version="1.0" encoding="UTF-8"?>
<svg xmlns="http://www.w3.org/2000/svg" xmlns:xlink="http://www.w3.org/1999/xlink" version="1.1" width="512" height="512" x="0" y="0" viewBox="0 0 480 480" style="enable-background:new 0 0 512 512" xml:space="preserve">
  <g transform="matrix(0.990000000000001,0,0,0.990000000000001,2.3999999999997783,2.3999999999997783)">
    <path d="M240 256c-44.108 0-80-35.892-80-80s35.892-80 80-80 80 35.892 80 80-35.892 80-80 80zm0-128c-26.468 0-48 21.532-48 48s21.532 48 48 48 48-21.532 48-48-21.532-48-48-48zm0-128C107.664 0 0 107.656 0 240s107.664 240 240 240 240-107.656 240-240S372.336 0 240 0zM128 414.992V400c0-44.108 35.892-80 80-80h64c44.108 0 80 35.892 80 80v14.992C319.628 435.784 281.248 448 240 448s-79.628-12.216-112-33.008zm255.504-24.796C378.512 333.028 330.448 288 272 288h-64c-58.448 0-106.512 45.028-111.504 102.196C56.848 352.3 32 299.044 32 240c0-114.688 93.304-208 208-208s208 93.312 208 208c0 59.044-24.848 112.3-64.496 150.196z" fill="#ffffff" opacity="1" data-original="#000000"/>
  </g>
</svg>
